<svg width="30" height="30" viewBox="0 0 30 30" fill="none" xmlns="http://www.w3.org/2000/svg">
<path d="M0 10C0 4.47715 4.47715 0 10 0H20C25.5228 0 30 4.47715 30 10V20C30 25.5228 25.5228 30 20 30H10C4.47715 30 0 25.5228 0 20V10Z" fill="#9D4EDD"/>
<path d="M10.1992 13.8409L14.6506 6.56013C14.7365 6.41927 14.9126 6.36222 15.0648 6.42596L21.169 8.97515C21.5082 9.11663 21.3997 9.623 21.0321 9.61234L17.0825 9.50408L19.6572 13.8415C19.6572 14.6211 17.54 15.253 14.9285 15.253C12.3173 15.253 10.1992 14.6204 10.1992 13.8409Z" fill="#FAF3FF"/>
<path d="M20.5698 18.857C20.2513 21.5211 17.8693 23.5919 14.9749 23.5919C12.0704 23.5919 9.68047 21.5071 9.37598 18.8296C11.093 19.4026 13.0934 19.7414 14.9749 19.7414C16.8781 19.7407 18.8672 19.4145 20.5698 18.857Z" fill="#FAF3FF"/>
<mask id="mask0_33_301" style="mask-type:luminance" maskUnits="userSpaceOnUse" x="6" y="12" width="18" height="7">
<path d="M6 12.5379H24V18.7439H6V12.5379Z" fill="white"/>
</mask>
<g mask="url(#mask0_33_301)">
<path d="M23.9771 15.1109C23.9771 16.8267 19.545 18.7439 14.9745 18.7439C10.515 18.7439 5.97168 16.8267 5.97168 15.1109C5.97168 14.0589 7.49016 13.1306 9.80821 12.5684L9.20194 13.5605V13.8409C9.20194 16.1329 13.972 16.2493 14.9279 16.2493C15.884 16.2493 20.6538 16.1329 20.6538 13.8409V13.5672L20.0476 12.5456C22.4183 13.1059 23.9771 14.0449 23.9771 15.1109Z" fill="#FAF3FF"/>
</g>
<path d="M14.3679 18.018V16.8987H15.6795V18.018H14.3679Z" fill="#9D4EDD"/>
<path d="M16.4208 17.906L16.3067 16.8987H16.4208L17.4472 16.7308L17.5613 17.7382L16.4208 17.906Z" fill="#9D4EDD"/>
<path d="M18.3026 17.5703L18.0745 16.5629L19.2149 16.2272L19.6141 17.1785L18.3026 17.5703Z" fill="#9D4EDD"/>
<path d="M20.3554 16.8987L19.8422 16.0593L20.9256 15.5556L21.5529 16.3391L20.3554 16.8987Z" fill="#9D4EDD"/>
<path d="M22.1231 15.9473L21.3818 15.1639L22.4083 14.5483L23.0925 15.0519L22.1231 15.9473Z" fill="#9D4EDD"/>
<path d="M13.5696 18.018L13.6837 16.8987L12.6002 16.7868L12.5432 17.906L13.5696 18.018Z" fill="#9D4EDD"/>
<path d="M10.3763 17.4583L10.6044 16.2272L11.8019 16.5629L11.5738 17.7382L10.3763 17.4583Z" fill="#9D4EDD"/>
<path d="M8.15236 16.395L8.77962 15.3317L9.86307 15.9473L9.34986 16.8987L8.15236 16.395Z" fill="#9D4EDD"/>
<path d="M6.84082 15.1639L7.63915 14.3244L8.38046 15.1639L7.81022 16.0593L6.84082 15.1639Z" fill="#9D4EDD"/>
</svg>
