<svg width="155" height="18" viewBox="0 0 155 18" fill="none" xmlns="http://www.w3.org/2000/svg">
<path d="M151.504 16.926V14.396L151.724 14.44C151.533 15.2613 151.071 15.9213 150.338 16.42C149.604 16.904 148.732 17.146 147.72 17.146C146.693 17.146 145.798 16.9113 145.036 16.442C144.288 15.958 143.708 15.2833 143.298 14.418C142.887 13.5527 142.682 12.5333 142.682 11.36C142.682 10.172 142.894 9.13801 143.32 8.25801C143.745 7.37801 144.339 6.69601 145.102 6.21201C145.879 5.72801 146.781 5.48601 147.808 5.48601C148.864 5.48601 149.736 5.74268 150.426 6.25601C151.115 6.75468 151.54 7.45135 151.702 8.34601L151.416 8.36801V1.08601H154.21V16.926H151.504ZM148.534 14.88C149.428 14.88 150.14 14.572 150.668 13.956C151.21 13.3253 151.482 12.4453 151.482 11.316C151.482 10.1867 151.21 9.31401 150.668 8.69801C150.125 8.08202 149.406 7.77401 148.512 7.77401C147.632 7.77401 146.92 8.08935 146.378 8.72001C145.835 9.33601 145.564 10.2087 145.564 11.338C145.564 12.4673 145.835 13.34 146.378 13.956C146.92 14.572 147.639 14.88 148.534 14.88Z" fill="black"/>
<path d="M136.281 16.926V5.70602H138.987V8.41202H139.053V16.926H136.281ZM139.053 11.074L138.767 8.41202C139.031 7.45868 139.479 6.73268 140.109 6.23402C140.74 5.73535 141.495 5.48602 142.375 5.48602C142.683 5.48602 142.903 5.51535 143.035 5.57402V8.19202C142.962 8.16268 142.859 8.14802 142.727 8.14802C142.595 8.13335 142.434 8.12602 142.243 8.12602C141.173 8.12602 140.373 8.36068 139.845 8.83002C139.317 9.29935 139.053 10.0473 139.053 11.074Z" fill="black"/>
<path d="M132.11 16.926C132.036 16.6327 131.978 16.31 131.934 15.958C131.904 15.606 131.89 15.1807 131.89 14.682H131.802V9.35802C131.802 8.77135 131.633 8.33135 131.296 8.03802C130.973 7.73002 130.474 7.57602 129.8 7.57602C129.14 7.57602 128.612 7.70068 128.216 7.95002C127.834 8.18468 127.6 8.52935 127.512 8.98401H124.85C124.967 7.94268 125.466 7.09935 126.346 6.45402C127.226 5.80868 128.406 5.48602 129.888 5.48602C131.428 5.48602 132.594 5.83802 133.386 6.54202C134.178 7.23135 134.574 8.25068 134.574 9.60002V14.682C134.574 15.034 134.596 15.3933 134.64 15.76C134.698 16.1267 134.779 16.5153 134.882 16.926H132.11ZM128.216 17.146C127.086 17.146 126.184 16.8673 125.51 16.31C124.85 15.738 124.52 14.9754 124.52 14.022C124.52 12.9954 124.894 12.1813 125.642 11.58C126.39 10.9787 127.446 10.5753 128.81 10.37L132.308 9.84202V11.602L129.272 12.064C128.612 12.1667 128.113 12.35 127.776 12.614C127.453 12.878 127.292 13.2447 127.292 13.714C127.292 14.1393 127.446 14.4693 127.754 14.704C128.062 14.924 128.487 15.034 129.03 15.034C129.822 15.034 130.482 14.836 131.01 14.44C131.538 14.044 131.802 13.56 131.802 12.988L132.11 14.682C131.816 15.4887 131.332 16.1047 130.658 16.53C129.998 16.9407 129.184 17.146 128.216 17.146Z" fill="black"/>
<path d="M114.838 16.926V14.968L121.284 6.82802L121.944 7.88402H115.036V5.70602H124.034V7.66402L117.698 15.694L117.06 14.748H124.166V16.926H114.838Z" fill="black"/>
<path d="M110.986 16.926V5.70602H113.758V16.926H110.986ZM110.854 3.85802V0.800018H113.868V3.85802H110.854Z" fill="black"/>
<path d="M92.4983 16.926L87.9443 1.08601H90.8483L94.7203 15.628H93.8843L97.4703 1.08601H100.77L104.312 15.628H103.498L107.37 1.08601H110.142L105.588 16.926H102.332L98.7243 2.71401H99.4063L95.7543 16.926H92.4983Z" fill="black"/>
<path d="M78.9756 17.146C77.7876 17.146 76.7463 16.8967 75.8516 16.398C74.9716 15.8994 74.2823 15.21 73.7836 14.33C73.2996 13.45 73.0576 12.438 73.0576 11.294C73.0576 10.15 73.2996 9.14535 73.7836 8.28002C74.2823 7.40002 74.9716 6.71802 75.8516 6.23402C76.7316 5.73535 77.7583 5.48602 78.9316 5.48602C80.0463 5.48602 81.0143 5.72068 81.8356 6.19002C82.657 6.64468 83.2949 7.29002 83.7496 8.12602C84.2043 8.96202 84.4316 9.93735 84.4316 11.052C84.4316 11.2573 84.4243 11.448 84.4096 11.624C84.395 11.8 84.3729 11.976 84.3436 12.152H74.7736V10.216H82.2096L81.6376 10.744C81.6376 9.68802 81.3956 8.89602 80.9116 8.36802C80.4276 7.84002 79.7529 7.57602 78.8876 7.57602C77.9489 7.57602 77.2009 7.89868 76.6436 8.54402C76.1009 9.18935 75.8296 10.1207 75.8296 11.338C75.8296 12.5407 76.1009 13.4647 76.6436 14.11C77.2009 14.7407 77.9856 15.056 78.9976 15.056C79.5843 15.056 80.0976 14.946 80.5376 14.726C80.9776 14.506 81.3003 14.1687 81.5056 13.714H84.1236C83.757 14.77 83.1336 15.606 82.2536 16.222C81.3883 16.838 80.2956 17.146 78.9756 17.146Z" fill="black"/>
<path d="M71.0824 17.146C69.7037 17.146 68.6844 16.8234 68.0244 16.178C67.3791 15.518 67.0564 14.5354 67.0564 13.23V3.15402L69.8504 2.12002V13.296C69.8504 13.8387 69.9971 14.242 70.2904 14.506C70.5837 14.77 71.0457 14.902 71.6764 14.902C71.9257 14.902 72.1457 14.8874 72.3364 14.858C72.5417 14.814 72.7324 14.7627 72.9084 14.704V16.86C72.7324 16.948 72.4831 17.014 72.1604 17.058C71.8377 17.1167 71.4784 17.146 71.0824 17.146ZM64.9004 7.88402V5.70602H72.9084V7.88402H64.9004Z" fill="black"/>
<path d="M61.8742 16.926C61.8008 16.6327 61.7422 16.31 61.6982 15.958C61.6688 15.606 61.6542 15.1807 61.6542 14.682H61.5662V9.35802C61.5662 8.77135 61.3975 8.33135 61.0602 8.03802C60.7375 7.73002 60.2388 7.57602 59.5642 7.57602C58.9042 7.57602 58.3762 7.70068 57.9802 7.95002C57.5988 8.18468 57.3642 8.52935 57.2762 8.98401H54.6142C54.7315 7.94268 55.2302 7.09935 56.1102 6.45402C56.9902 5.80868 58.1708 5.48602 59.6522 5.48602C61.1922 5.48602 62.3582 5.83802 63.1502 6.54202C63.9422 7.23135 64.3382 8.25068 64.3382 9.60002V14.682C64.3382 15.034 64.3602 15.3933 64.4042 15.76C64.4628 16.1267 64.5435 16.5153 64.6462 16.926H61.8742ZM57.9802 17.146C56.8508 17.146 55.9488 16.8673 55.2742 16.31C54.6142 15.738 54.2842 14.9754 54.2842 14.022C54.2842 12.9954 54.6582 12.1813 55.4062 11.58C56.1542 10.9787 57.2102 10.5753 58.5742 10.37L62.0722 9.84202V11.602L59.0362 12.064C58.3762 12.1667 57.8775 12.35 57.5402 12.614C57.2175 12.878 57.0562 13.2447 57.0562 13.714C57.0562 14.1393 57.2102 14.4693 57.5182 14.704C57.8262 14.924 58.2515 15.034 58.7942 15.034C59.5862 15.034 60.2462 14.836 60.7742 14.44C61.3022 14.044 61.5662 13.56 61.5662 12.988L61.8742 14.682C61.5808 15.4887 61.0968 16.1047 60.4222 16.53C59.7622 16.9407 58.9482 17.146 57.9802 17.146Z" fill="black"/>
<path d="M50.322 16.926V14.396L50.542 14.44C50.3513 15.2613 49.8893 15.9213 49.156 16.42C48.4227 16.904 47.55 17.146 46.538 17.146C45.5113 17.146 44.6167 16.9113 43.854 16.442C43.106 15.958 42.5267 15.2833 42.116 14.418C41.7053 13.5527 41.5 12.5333 41.5 11.36C41.5 10.172 41.7127 9.13801 42.138 8.25801C42.5633 7.37801 43.1573 6.69601 43.92 6.21201C44.6973 5.72801 45.5993 5.48601 46.626 5.48601C47.682 5.48601 48.5547 5.74268 49.244 6.25601C49.9333 6.75468 50.3587 7.45135 50.52 8.34601L50.234 8.36801V1.08601H53.028V16.926H50.322ZM47.352 14.88C48.2467 14.88 48.958 14.572 49.486 13.956C50.0287 13.3253 50.3 12.4453 50.3 11.316C50.3 10.1867 50.0287 9.31401 49.486 8.69801C48.9433 8.08202 48.2247 7.77401 47.33 7.77401C46.45 7.77401 45.7387 8.08935 45.196 8.72001C44.6533 9.33601 44.382 10.2087 44.382 11.338C44.382 12.4673 44.6533 13.34 45.196 13.956C45.7387 14.572 46.4573 14.88 47.352 14.88Z" fill="black"/>
<path d="M29.9434 16.926V5.70602H32.6494V8.34602H32.7154V16.926H29.9434ZM37.8194 16.926V9.84201C37.8194 9.15268 37.6434 8.63202 37.2914 8.28002C36.9394 7.92802 36.426 7.75202 35.7514 7.75202C35.1647 7.75202 34.6367 7.88402 34.1674 8.14802C33.7127 8.41202 33.3534 8.77868 33.0894 9.24802C32.84 9.71735 32.7154 10.26 32.7154 10.876L32.4294 8.19202C32.8107 7.37068 33.368 6.71802 34.1014 6.23402C34.8347 5.73535 35.7147 5.48602 36.7414 5.48602C37.9587 5.48602 38.9047 5.83068 39.5794 6.52002C40.2687 7.20935 40.6134 8.12602 40.6134 9.27002V16.926H37.8194Z" fill="black"/>
<path d="M25.7716 16.926C25.6983 16.6327 25.6396 16.31 25.5956 15.958C25.5663 15.606 25.5516 15.1807 25.5516 14.682H25.4636V9.35802C25.4636 8.77135 25.295 8.33135 24.9576 8.03802C24.635 7.73002 24.1363 7.57602 23.4616 7.57602C22.8016 7.57602 22.2736 7.70068 21.8776 7.95002C21.4963 8.18468 21.2616 8.52935 21.1736 8.98401H18.5116C18.629 7.94268 19.1276 7.09935 20.0076 6.45402C20.8876 5.80868 22.0683 5.48602 23.5496 5.48602C25.0896 5.48602 26.2556 5.83802 27.0476 6.54202C27.8396 7.23135 28.2356 8.25068 28.2356 9.60002V14.682C28.2356 15.034 28.2576 15.3933 28.3016 15.76C28.3603 16.1267 28.441 16.5153 28.5436 16.926H25.7716ZM21.8776 17.146C20.7483 17.146 19.8463 16.8673 19.1716 16.31C18.5116 15.738 18.1816 14.9754 18.1816 14.022C18.1816 12.9954 18.5556 12.1813 19.3036 11.58C20.0516 10.9787 21.1076 10.5753 22.4716 10.37L25.9696 9.84202V11.602L22.9336 12.064C22.2736 12.1667 21.775 12.35 21.4376 12.614C21.115 12.878 20.9536 13.2447 20.9536 13.714C20.9536 14.1393 21.1076 14.4693 21.4156 14.704C21.7236 14.924 22.149 15.034 22.6916 15.034C23.4836 15.034 24.1436 14.836 24.6716 14.44C25.1996 14.044 25.4636 13.56 25.4636 12.988L25.7716 14.682C25.4783 15.4887 24.9943 16.1047 24.3196 16.53C23.6596 16.9407 22.8456 17.146 21.8776 17.146Z" fill="black"/>
<path d="M0 16.926V1.08601H4.444L9.284 16.354H7.722L12.562 1.08601H17.028V16.926H14.212V2.03201H14.674L9.966 16.926H6.908L2.244 2.16401H2.684V16.926H0Z" fill="black"/>
</svg>
